<svg width="18" height="18" viewBox="0 0 18 18" fill="none" xmlns="http://www.w3.org/2000/svg">
<path d="M0.6875 11.5598C0.6875 14.7355 3.26186 17.3098 6.4375 17.3098L13.5444 17.3098C13.9586 17.3098 14.2944 16.974 14.2944 16.5598C14.2944 16.1456 13.9586 15.8098 13.5444 15.8098L6.4375 15.8098C4.09029 15.8098 2.1875 13.907 2.1875 11.5598L2.1875 4.54696C2.1875 4.13275 1.85171 3.79696 1.4375 3.79696C1.02329 3.79696 0.687499 4.13275 0.687499 4.54696L0.6875 11.5598Z" fill="#444444"/>
<path fill-rule="evenodd" clip-rule="evenodd" d="M4.23076 2.15726C3.86853 5.39821 3.86853 8.72138 4.23076 11.9623C4.33395 12.8856 5.06054 13.6275 5.99098 13.7364C9.27746 14.1208 12.5975 14.1208 15.884 13.7364C16.8145 13.6275 17.541 12.8856 17.6442 11.9623C18.0065 8.72138 18.0065 5.39821 17.6442 2.15726C17.541 1.23398 16.8145 0.492049 15.884 0.383226C12.5975 -0.00115637 9.27746 -0.00115623 5.99098 0.383226C5.06054 0.49205 4.33395 1.23398 4.23076 2.15726ZM5.72148 11.7957C5.37163 8.6655 5.37163 5.45409 5.72148 2.32387C5.748 2.08652 5.93571 1.89991 6.16523 1.87307C9.33593 1.50223 12.5391 1.50223 15.7098 1.87307C15.9393 1.89991 16.127 2.08652 16.1535 2.32387C16.5034 5.45409 16.5034 8.6655 16.1535 11.7957C16.127 12.0331 15.9393 12.2197 15.7098 12.2465C12.5391 12.6174 9.33594 12.6174 6.16523 12.2465C5.93571 12.2197 5.748 12.0331 5.72148 11.7957Z" fill="#444444"/>
</svg>
