<svg width="19" height="22" viewBox="0 0 19 22" fill="none" xmlns="http://www.w3.org/2000/svg">
<path d="M12.2305 10.8169C12.2305 10.4027 11.8947 10.0669 11.4805 10.0669H5.48047C5.06626 10.0669 4.73047 10.4027 4.73047 10.8169C4.73047 11.2311 5.06626 11.5669 5.48047 11.5669H11.4805C11.8947 11.5669 12.2305 11.2311 12.2305 10.8169Z" fill="#444444"/>
<path d="M12.2305 14.8169C12.2305 14.4027 11.8947 14.0669 11.4805 14.0669H5.48047C5.06626 14.0669 4.73047 14.4027 4.73047 14.8169C4.73047 15.2311 5.06626 15.5669 5.48047 15.5669H11.4805C11.8947 15.5669 12.2305 15.2311 12.2305 14.8169Z" fill="#444444"/>
<path fill-rule="evenodd" clip-rule="evenodd" d="M3.48047 0.0668945C1.96169 0.0668945 0.730469 1.29811 0.730469 2.81689V16.8169C0.730469 18.3357 1.96169 19.5669 3.48047 19.5669H13.4805C14.9993 19.5669 16.2305 18.3357 16.2305 16.8169V5.78455C16.2305 5.40378 16.1063 5.0334 15.8767 4.72959L12.879 0.761936C12.5482 0.324192 12.0313 0.0668945 11.4827 0.0668945H3.48047ZM2.23047 2.81689C2.23047 2.12654 2.79011 1.56689 3.48047 1.56689H10.7305V5.96394C10.7305 6.37815 11.0663 6.71394 11.4805 6.71394H14.7305V16.8169C14.7305 17.5073 14.1708 18.0669 13.4805 18.0669H3.48047C2.79011 18.0669 2.23047 17.5072 2.23047 16.8169V2.81689Z" fill="#444444"/>
<circle cx="14.109" cy="17.1664" r="4.6051" fill="#F7CD46"/>
<path d="M11.3291 16.9239L13.3435 18.9382L16.8872 15.3945" stroke="white"/>
</svg>
