<svg width="20" height="20" viewBox="0 0 20 20" fill="none" xmlns="http://www.w3.org/2000/svg">
<path fill-rule="evenodd" clip-rule="evenodd" d="M19.5024 3.16722C19.6946 3.45833 19.6626 3.85394 19.4063 4.11022L10.2139 13.3026C10.1197 13.3968 10.0021 13.4643 9.87313 13.4979L6.0447 14.4979C5.91984 14.5305 5.79113 14.5299 5.67019 14.4991C5.54163 14.4664 5.42186 14.3996 5.32484 14.3026C5.13657 14.1143 5.06223 13.8403 5.12952 13.5827L6.12952 9.7543C6.15898 9.64149 6.21428 9.53008 6.29076 9.44268L15.5172 0.221135C15.598 0.140371 15.6953 0.079925 15.8011 0.0430961C15.8796 0.0157891 15.9629 0.00146484 16.0475 0.00146484C16.2465 0.00146484 16.4372 0.0804823 16.5779 0.221135L19.4063 3.04956C19.4429 3.08617 19.475 3.12563 19.5024 3.16722ZM17.8153 3.57989L16.0475 1.81212L7.52938 10.3303L6.9044 12.723L9.29716 12.0981L17.8153 3.57989Z" fill="black"/>
<path d="M17.6889 14.9118C17.9623 12.5742 18.0493 10.2202 17.9499 7.87225C17.9451 7.75984 17.9874 7.65045 18.067 7.57088L19.0503 6.58755C19.1712 6.46666 19.3778 6.54341 19.3891 6.71401C19.574 9.50366 19.5039 12.306 19.1787 15.086C18.9422 17.1086 17.3179 18.6936 15.3058 18.9184C11.8392 19.3059 8.25589 19.3059 4.78931 18.9184C2.77726 18.6936 1.15293 17.1086 0.916372 15.086C0.501834 11.5417 0.501834 7.96119 0.916372 4.41689C1.15293 2.39436 2.77726 0.809354 4.78932 0.584477C7.41906 0.290564 10.116 0.219613 12.7782 0.371626C12.9498 0.381423 13.028 0.58904 12.9065 0.710558L11.9139 1.70311C11.8352 1.78181 11.7273 1.82407 11.6161 1.82032C9.38966 1.74523 7.1481 1.83019 4.95593 2.0752C3.62582 2.22385 2.56033 3.27347 2.40622 4.59114C2.00522 8.01967 2.00522 11.4833 2.40622 14.9118C2.56033 16.2295 3.62582 17.2791 4.95592 17.4277C8.31177 17.8028 11.7833 17.8028 15.1392 17.4277C16.4693 17.2791 17.5348 16.2295 17.6889 14.9118Z" fill="black"/>
</svg>
