<svg width="24" height="24" viewBox="0 0 24 24" fill="none" xmlns="http://www.w3.org/2000/svg">
<path d="M13.7452 12.1719C13.6493 11.769 13.2449 11.52 12.8419 11.6159L7.00485 13.0046C6.60188 13.1004 6.35293 13.5048 6.4488 13.9078C6.54467 14.3108 6.94906 14.5597 7.35202 14.4638L13.1891 13.0752C13.5921 12.9793 13.841 12.5749 13.7452 12.1719Z" fill="#444444"/>
<path d="M14.6709 16.0633C14.5751 15.6604 14.1707 15.4114 13.7677 15.5073L7.93065 16.896C7.52768 16.9918 7.27873 17.3962 7.3746 17.7992C7.47047 18.2022 7.87485 18.4511 8.27782 18.3552L14.1149 16.9665C14.5179 16.8707 14.7668 16.4663 14.6709 16.0633Z" fill="#444444"/>
<path fill-rule="evenodd" clip-rule="evenodd" d="M2.74467 3.739C1.26712 4.09052 0.3543 5.57327 0.705821 7.05082L3.94611 20.6707C4.29763 22.1482 5.78038 23.061 7.25792 22.7095L16.9864 20.395C18.4639 20.0435 19.3768 18.5608 19.0252 17.0832L16.4718 6.35043C16.3837 5.98 16.1771 5.64842 15.8835 5.40599L12.0488 2.2399C11.6257 1.8906 11.0633 1.75992 10.5296 1.8869L2.74467 3.739ZM2.16509 6.70364C2.00531 6.03203 2.42023 5.35806 3.09184 5.19827L10.145 3.52027L11.1627 7.79792C11.2585 8.20089 11.6629 8.44984 12.0659 8.35397L15.2276 7.60176L17.566 17.4304C17.7257 18.102 17.3108 18.776 16.6392 18.9358L6.91075 21.2503C6.23914 21.41 5.56516 20.9951 5.40538 20.3235L2.16509 6.70364Z" fill="#444444"/>
<path d="M19.206 13.5037C19.2258 13.0899 18.9064 12.7385 18.4927 12.7187L12.4995 12.4322C12.0858 12.4124 11.7343 12.7318 11.7146 13.1455C11.6948 13.5593 12.0141 13.9107 12.4279 13.9305L18.421 14.217C18.8348 14.2368 19.1862 13.9174 19.206 13.5037Z" fill="white"/>
<path d="M19.015 17.4991C19.0348 17.0854 18.7154 16.7339 18.3017 16.7141L12.3085 16.4276C11.8948 16.4079 11.5433 16.7272 11.5236 17.141C11.5038 17.5547 11.8231 17.9061 12.2369 17.9259L18.23 18.2124C18.6438 18.2322 18.9952 17.9128 19.015 17.4991Z" fill="white"/>
<path fill-rule="evenodd" clip-rule="evenodd" d="M10.9793 2.34811C9.46223 2.27559 8.17363 3.44661 8.10111 4.96366L7.43262 18.9477C7.3601 20.4647 8.53112 21.7533 10.0482 21.8259L20.0368 22.3034C21.5538 22.3759 22.8424 21.2049 22.9149 19.6878L23.4417 8.66805C23.4599 8.28771 23.3535 7.91182 23.1388 7.5974L20.3339 3.49113C20.0244 3.03809 19.5204 2.75641 18.9724 2.73021L10.9793 2.34811Z" fill="white"/>
<path d="M17.9394 8.58461C17.9197 8.99835 18.239 9.34979 18.6528 9.36957L21.8991 9.52475L21.4166 19.6162C21.3837 20.3058 20.798 20.838 20.1084 20.8051L10.1198 20.3276C9.43023 20.2946 8.89794 19.7089 8.93091 19.0193M8.10111 4.96366C8.17363 3.44661 9.46223 2.27559 10.9793 2.34811L18.9724 2.73021C19.5204 2.75641 20.0244 3.03809 20.3339 3.49113L23.1388 7.5974C23.3535 7.91182 23.4599 8.28771 23.4417 8.66805L22.9149 19.6878C22.8424 21.2049 21.5538 22.3759 20.0368 22.3034L10.0482 21.8259C8.53112 21.7533 7.3601 20.4647 7.43262 18.9477L8.10111 4.96366ZM18.4927 12.7187C18.9064 12.7385 19.2258 13.0899 19.206 13.5037C19.1862 13.9174 18.8348 14.2368 18.421 14.217L12.4279 13.9305C12.0141 13.9107 11.6948 13.5593 11.7146 13.1455C11.7343 12.7318 12.0858 12.4124 12.4995 12.4322L18.4927 12.7187ZM18.3017 16.7141C18.7154 16.7339 19.0348 17.0854 19.015 17.4991C18.9952 17.9128 18.6438 18.2322 18.23 18.2124L12.2369 17.9259C11.8231 17.9061 11.5038 17.5547 11.5236 17.141C11.5433 16.7272 11.8948 16.4079 12.3085 16.4276L18.3017 16.7141Z" stroke="white" stroke-linejoin="round"/>
<path d="M19.206 13.5037C19.2258 13.0899 18.9064 12.7385 18.4927 12.7187L12.4995 12.4322C12.0858 12.4124 11.7343 12.7318 11.7146 13.1455C11.6948 13.5593 12.0141 13.9107 12.4279 13.9305L18.421 14.217C18.8348 14.2368 19.1862 13.9174 19.206 13.5037Z" fill="#444444"/>
<path d="M19.015 17.4991C19.0348 17.0854 18.7154 16.7339 18.3017 16.7141L12.3085 16.4276C11.8948 16.4079 11.5433 16.7272 11.5236 17.141C11.5038 17.5547 11.8231 17.9061 12.2369 17.9259L18.23 18.2124C18.6438 18.2322 18.9952 17.9128 19.015 17.4991Z" fill="#444444"/>
<path fill-rule="evenodd" clip-rule="evenodd" d="M10.9793 2.34811C9.46223 2.27559 8.17363 3.44661 8.10111 4.96366L7.43262 18.9477C7.3601 20.4647 8.53112 21.7533 10.0482 21.8259L20.0368 22.3034C21.5538 22.3759 22.8424 21.2049 22.9149 19.6878L23.4417 8.66805C23.4599 8.28771 23.3535 7.91182 23.1388 7.5974L20.3339 3.49113C20.0244 3.03809 19.5204 2.75641 18.9724 2.73021L10.9793 2.34811ZM9.5994 5.03528C9.63236 4.34572 10.2181 3.81343 10.9077 3.8464L18.1494 4.19258L17.9394 8.58461C17.9197 8.99835 18.239 9.34979 18.6528 9.36957L21.8991 9.52475L21.4166 19.6162C21.3837 20.3058 20.798 20.838 20.1084 20.8051L10.1198 20.3276C9.43023 20.2946 8.89794 19.7089 8.93091 19.0193L9.5994 5.03528Z" fill="#444444"/>
</svg>
