<svg width="41" height="41" viewBox="0 0 41 41" fill="none" xmlns="http://www.w3.org/2000/svg">
<path d="M22.2054 19.9572C22.2054 18.5765 23.3247 17.4572 24.7054 17.4572C26.0861 17.4572 27.2054 18.5765 27.2054 19.9572C27.2054 21.3379 26.0861 22.4572 24.7054 22.4572C23.3247 22.4572 22.2054 21.3379 22.2054 19.9572Z" fill="black"/>
<path d="M19.0987 22.628C18.8703 22.2626 18.4697 22.0405 18.0387 22.0405C17.6077 22.0405 17.2072 22.2626 16.9787 22.628L12.8121 29.2947C12.5712 29.68 12.5585 30.1657 12.7788 30.5632C12.9991 30.9606 13.4177 31.2072 13.8721 31.2072H27.2054C27.6789 31.2072 28.1117 30.9397 28.3234 30.5162C28.5352 30.0927 28.4895 29.586 28.2054 29.2072L25.7054 25.8739C25.4693 25.5591 25.0989 25.3739 24.7054 25.3739C24.312 25.3739 23.9415 25.5591 23.7054 25.8739L22.2992 27.7488L19.0987 22.628Z" fill="black"/>
<path fill-rule="evenodd" clip-rule="evenodd" d="M12.2054 4.54053C9.6741 4.54053 7.62207 6.59255 7.62207 9.12386V32.4572C7.62207 34.9885 9.6741 37.0405 12.2054 37.0405H28.8721C31.4034 37.0405 33.4554 34.9885 33.4554 32.4572V14.07C33.4554 13.4353 33.2484 12.818 32.8659 12.3117L27.8695 5.69893C27.3183 4.96936 26.4568 4.54053 25.5424 4.54053H12.2054ZM10.1221 9.12386C10.1221 7.97327 11.0548 7.04053 12.2054 7.04053H24.2887V14.3689C24.2887 15.0593 24.8484 15.6189 25.5387 15.6189H30.9554V32.4572C30.9554 33.6078 30.0227 34.5405 28.8721 34.5405H12.2054C11.0548 34.5405 10.1221 33.6078 10.1221 32.4572V9.12386Z" fill="black"/>
</svg>
