<svg width="15" height="15" viewBox="0 0 15 15" fill="none" xmlns="http://www.w3.org/2000/svg">
<path fill-rule="evenodd" clip-rule="evenodd" d="M1.01377 3.8292C1.76777 3.0342 2.03477 2.8112 2.35577 2.7082C2.57826 2.64968 2.81165 2.64625 3.03577 2.6982C3.33077 2.7842 3.40777 2.8492 4.37577 3.8122C5.22577 4.6582 5.30977 4.7502 5.39177 4.9122C5.55038 5.20378 5.57588 5.54951 5.46177 5.8612C5.37777 6.0962 5.25377 6.2522 4.73877 6.7702L4.40277 7.1072C4.31437 7.19687 4.29341 7.33311 4.35077 7.4452C5.09664 8.71778 6.15462 9.7792 7.42477 10.5292C7.57126 10.6077 7.75176 10.5822 7.87077 10.4662L8.19377 10.1482C8.39335 9.94339 8.6047 9.7504 8.82677 9.5702C9.17496 9.35475 9.6096 9.33396 9.97677 9.5152C10.1558 9.5992 10.2158 9.6542 11.0928 10.5282C11.9928 11.4282 12.0218 11.4572 12.1228 11.6642C12.3113 12.0071 12.3094 12.423 12.1178 12.7642C12.0178 12.9562 11.9618 13.0262 11.4538 13.5452C11.1468 13.8592 10.8538 14.1452 10.8118 14.1872C10.3922 14.5339 9.85443 14.7042 9.31177 14.6622C8.31897 14.5713 7.35813 14.2641 6.49677 13.7622C4.5876 12.7507 2.96242 11.2768 1.76977 9.4752C1.50896 9.09857 1.27697 8.70278 1.07577 8.2912C0.539673 7.37218 0.262526 6.3251 0.273766 5.2612C0.31409 4.70272 0.581541 4.18517 1.01377 3.8292Z" fill="#F7CD46"/>
<path d="M9.56402 0.0964056C9.25213 -0.015537 8.90854 0.146553 8.7966 0.458443C8.68466 0.770333 8.84675 1.11392 9.15864 1.22586L9.56402 0.0964056ZM13.7001 5.69132C13.8173 6.00128 14.1636 6.15755 14.4735 6.04036C14.7835 5.92317 14.9397 5.5769 14.8226 5.26694L13.7001 5.69132ZM8.3939 2.32887C8.07066 2.25587 7.74946 2.45873 7.67646 2.78196C7.60346 3.10519 7.80631 3.42639 8.12954 3.49939L8.3939 2.32887ZM11.4887 6.80305C11.5671 7.12502 11.8917 7.32249 12.2136 7.24411C12.5356 7.16573 12.7331 6.84119 12.6547 6.51922L11.4887 6.80305ZM9.15864 1.22586C11.2532 1.97764 12.9131 3.60971 13.7001 5.69132L14.8226 5.26694C13.9113 2.85666 11.9893 0.966893 9.56402 0.0964056L9.15864 1.22586ZM8.12954 3.49939C9.78574 3.87343 11.0871 5.15332 11.4887 6.80305L12.6547 6.51922C12.1453 4.42671 10.4946 2.8033 8.3939 2.32887L8.12954 3.49939Z" fill="#F7CD46"/>
</svg>
