<svg width="16" height="21" viewBox="0 0 16 21" fill="none" xmlns="http://www.w3.org/2000/svg">
<path d="M6.04492 0.0661621C5.63071 0.0661621 5.29492 0.401949 5.29492 0.816162V1.56616H1.04492C0.630708 1.56616 0.294922 1.90195 0.294922 2.31616C0.294922 2.73038 0.630708 3.06616 1.04492 3.06616H15.0449C15.4591 3.06616 15.7949 2.73038 15.7949 2.31616C15.7949 1.90195 15.4591 1.56616 15.0449 1.56616H10.7949V0.816162C10.7949 0.401949 10.4591 0.0661621 10.0449 0.0661621H6.04492Z" fill="#444444"/>
<path d="M6.04492 8.46616C6.45914 8.46616 6.79492 8.80194 6.79492 9.21616L6.79492 16.2162C6.79492 16.6304 6.45914 16.9662 6.04492 16.9662C5.63071 16.9662 5.29492 16.6304 5.29492 16.2162L5.29492 9.21616C5.29492 8.80194 5.63071 8.46616 6.04492 8.46616Z" fill="#444444"/>
<path d="M10.7949 9.21616C10.7949 8.80194 10.4591 8.46616 10.0449 8.46616C9.63071 8.46616 9.29492 8.80194 9.29492 9.21616V16.2162C9.29492 16.6304 9.63071 16.9662 10.0449 16.9662C10.4591 16.9662 10.7949 16.6304 10.7949 16.2162V9.21616Z" fill="#444444"/>
<path fill-rule="evenodd" clip-rule="evenodd" d="M2.03635 5.73334C2.07855 5.35351 2.3996 5.06616 2.78176 5.06616H13.3081C13.6902 5.06616 14.0113 5.35351 14.0535 5.73334L14.2536 7.53469C14.6165 10.8 14.6165 14.0955 14.2536 17.3608L14.2339 17.5381C14.0899 18.8343 13.0854 19.8678 11.7938 20.0486C9.30668 20.3968 6.78315 20.3968 4.296 20.0486C3.00446 19.8678 1.99992 18.8343 1.8559 17.5381L1.8362 17.3608C1.47338 14.0955 1.47338 10.8 1.8362 7.53468L2.03635 5.73334ZM3.45304 6.56616L3.32702 7.70033C2.97644 10.8556 2.97644 14.0399 3.32702 17.1952L3.34673 17.3725C3.41503 17.9872 3.89145 18.4774 4.50397 18.5631C6.85315 18.892 9.23669 18.892 11.5859 18.5631C12.1984 18.4774 12.6748 17.9872 12.7431 17.3725L12.7628 17.1952C13.1134 14.0399 13.1134 10.8556 12.7628 7.70033L12.6368 6.56616H3.45304Z" fill="#444444"/>
</svg>
